<?xml version="1.0" encoding="utf-8"?>
<svg width="48" height="48" viewBox="0 0 48 48" fill="none" xmlns="http://www.w3.org/2000/svg">
  <rect width="48" height="48" rx="24" fill="#25D366"/>
  <path d="M24 12C17.373 12 12 17.373 12 24c0 2.12.555 4.09 1.52 5.8L12 36l6.41-1.68A11.93 11.93 0 0024 36c6.627 0 12-5.373 12-12S30.627 12 24 12zm0 21.6c-1.77 0-3.48-.48-4.95-1.39l-.35-.21-3.8 1 1-3.7-.23-.37A9.57 9.57 0 0114.4 24c0-5.3 4.3-9.6 9.6-9.6s9.6 4.3 9.6 9.6-4.3 9.6-9.6 9.6zm5.26-7.13c-.29-.15-1.7-.84-1.96-.94-.26-.1-.45-.15-.64.15-.19.29-.74.94-.91 1.13-.17.19-.34.22-.63.07-.29-.15-1.22-.45-2.33-1.43-.86-.77-1.44-1.72-1.61-2.01-.17-.29-.02-.45.13-.6.13-.13.29-.34.43-.51.14-.17.19-.29.29-.48.1-.19.05-.36-.02-.51-.07-.15-.64-1.54-.88-2.11-.23-.56-.47-.48-.64-.49-.17-.01-.36-.01-.56-.01-.19 0-.51.07-.78.36-.27.29-1.03 1.01-1.03 2.46 0 1.45 1.05 2.85 1.2 3.05.15.19 2.07 3.17 5.02 4.32.7.3 1.25.48 1.68.61.71.23 1.36.2 1.87.12.57-.09 1.7-.7 1.94-1.37.24-.67.24-1.25.17-1.37-.07-.12-.26-.19-.55-.34z" fill="#fff"/>
</svg>
